<svg xmlns="http://www.w3.org/2000/svg" viewBox="0 0 257 556">
  <path fill="#001E2B" d="M202.781 249.578c-24.538-107.73-82.889-143.025-89.203-156.09-6.81-9.334-14.001-27.469-14.001-27.469l.453 295.211c0 .39-.39 1.105-.39 1.56h-.072c0 .39-.39.78-.39 1.17h.39c0 28.54 27.469 29.969 27.469 29.969.39 0 .39 0 .39-.39.456-.389.456-.389.881-.389 2.666-.78 15.002-5.147 22.464-31.528 7.007-24.578 15.418-70.545 18.084-82.395 7.331-32.633 22.05-18.083 22.05-18.083s7.59 6.485 12.269 34.193c4.679 27.708 5.459 56.543 5.459 56.543s1.949 37.635 18.083 40.301c0 0 13.406-1.17 19.890-9.723 6.485-8.554 3.819-28.054 3.819-28.054s-1.976-22.127-8.11-54.627ZM125.651 378.093v.364l-.354-.053v-.311h.354Z"/>
  <path fill="#10AA50" d="M128.065 0s-3.06 3.779-4.679 6.485c-1.618 2.705-3.339 7.721-3.339 7.721-.469-.39-10.713.39-13.009 10.713-2.295 10.324-5.07 27.35-5.07 27.35s-5.069 35.01-5.069 85.775c0 50.764 3.84 121.309 3.84 121.309s-.39 14.912 1.235 20.801c1.624 5.888 8.499 36.635 20.802 53.468 12.304 16.834 20.023 20.518 24.523 22.051 4.499 1.534 7.721 2.25 13.009 1.171 5.287-1.08 31.127-10.324 39.237-44.09 8.11-33.767 7.721-76.668 7.721-76.668s.389-40.323 0-60.344c-.39-20.022-3.84-41.163-7.33-53.467-3.451-12.304-9.339-31.527-22.348-48.361-13.01-16.833-41.921-42.963-41.921-42.963S137.9 19.612 133.133 12.97C128.366 6.329 128.065 0 128.065 0Z"/>
  <path fill="#B8C4C2" d="M125.487 378.404c.78 12.603 1.261 20.734 1.261 20.734l1.95 11.883c.39 3.06 1.17 3.839 1.17 3.839l-.39-299.052c-.78.781-1.56 1.561-2.341 2.731-13.01 16.833-16.054 42.963-16.054 42.963-1.17 12.304-1.95 40.772-1.95 40.772s-1.56 66.911.78 94.329c2.341 27.419 2.731 52.286 5.401 67.977 2.668 15.693 5.599 13.824 10.173 13.824Z"/>
</svg> 