<svg xmlns="http://www.w3.org/2000/svg" viewBox="0 0 24 24">
  <path fill="#46E3B7" d="M21.155 13.428l-1.302-2.254c-.248-.41-.739-.541-1.149-.293l-2.254 1.302c-.33.19-.468.599-.323.941.183.429.731.58 1.124.379l.821-.475v4.391c0 .164-.095.315-.241.389l-6.524 3.769c-.146.073-.319.073-.46 0l-6.529-3.769c-.146-.073-.24-.224-.24-.388V9.574c0-.164.094-.315.24-.389l6.529-3.769c.146-.073.319-.073.46 0l4.311 2.488c.405.234.952.062 1.151-.319.231-.443.029-.994-.456-1.208l-5.006-2.891c-.438-.252-.965-.252-1.403 0L1.348 9.225c-.438.252-.703.716-.703 1.215v8.734c0 .499.27.962.703 1.215l8.457 4.883c.438.253.97.253 1.408 0l8.456-4.883c.438-.253.707-.716.707-1.215V13.65l.409.071c.591.099 1.073-.468.731-.973c-.065-.096-.134-.196-.218-.32h-.053l.01.005z"/>
</svg> 