<svg xmlns="http://www.w3.org/2000/svg" viewBox="0 0 1280 1280" fill="none">
  <path fill-rule="evenodd" clip-rule="evenodd" d="M815.039 94.644C830.408 108.888 841.601 138.798 841.601 138.798C841.601 138.798 875.268 122.215 907.827 127.72C940.385 133.224 968.893 176.46 968.893 176.46C968.893 176.46 975.684 147.464 1003.18 134.673C1030.68 121.881 1064.43 133.783 1064.43 133.783C1064.43 133.783 1050.5 119.21 1053.38 94.6443C1056.26 70.0785 1079.74 45.8723 1079.74 45.8723C1079.74 45.8723 1050.62 55.2306 1010.36 44.0047C970.096 32.7788 960.822 10 960.822 10C960.822 10 947.847 29.0431 907.8 35.5904C867.753 42.1378 832.114 30.5966 832.114 30.5966C832.114 30.5966 834.49 59.1469 815.039 94.644Z" fill="#FF5D01"/>
  <path fill-rule="evenodd" clip-rule="evenodd" d="M206.324 675.585C206.324 630.336 227.559 587.437 265.083 557.626L670.568 225.312C702.077 199.256 746.9 200.603 776.562 228.761L1159.56 591.398C1194.08 624.171 1196.57 679.475 1165.13 715.217L826.259 1102.31C791.416 1141.51 734.615 1141.95 699.169 1103.34L242.688 609.441C218.54 583.099 206.324 549.966 206.324 515.76V675.585Z" fill="#000000"/>
  <path fill-rule="evenodd" clip-rule="evenodd" d="M435.955 639.059C438.033 629.081 448.059 622.734 458.037 624.812L878.976 700.847C888.953 702.926 895.301 712.951 893.222 722.929L865.427 852.647C863.348 862.624 853.323 868.972 843.345 866.894L422.406 790.858C412.429 788.78 406.081 778.754 408.159 768.777L435.955 639.059Z" fill="#FFFFFF"/>
  <path fill-rule="evenodd" clip-rule="evenodd" d="M475.958 440.56C478.036 430.583 488.062 424.235 498.039 426.313L918.979 502.348C928.956 504.427 935.304 514.452 933.225 524.43L905.43 654.148C903.351 664.125 893.326 670.473 883.348 668.395L462.409 592.359C452.431 590.281 446.084 580.255 448.162 570.278L475.958 440.56Z" fill="#FFFFFF"/>
</svg> 