<svg xmlns="http://www.w3.org/2000/svg" viewBox="0 0 150 34">
  <path fill="#222" d="M30.702 8.035c-1.403-.673-2.904-1.178-4.437-1.48a42.334 42.334 0 0 0-1.746 3.035c-1.072-2.163-2.209-4.05-3.328-5.588-2.417.713-4.79 1.78-7.067 3.202 1.273 1.971 2.506 4.233 3.651 6.693a63.898 63.898 0 0 1-3.778 7.25c-1.45.775-2.834 1.61-4.126 2.518-1.086.764-2.058 1.593-2.894 2.474.115 2.016.68 3.965 1.664 5.758.452-.448.94-.876 1.456-1.28 1.262-.987 2.704-1.847 4.294-2.554-1.157-2.14-2.175-4.351-3.025-6.598 2.798-.64 5.785-1.003 8.896-1.078l.7.007-.157-.31c-1.13-2.234-2.158-4.346-3.071-6.298a51.53 51.53 0 0 1 2.97-5.432c.808.273 1.566.602 2.25.981 1.565.865 2.41 1.973 2.41 3.19 0 .962-.451 1.915-1.341 2.834a2.342 2.342 0 0 1-.042-.438c0-.71-.261-1.363-.763-1.965-.5-.599-1.15-.909-1.926-.909-.775 0-1.425.31-1.924.91-.503.602-.765 1.255-.765 1.964 0 .71.262 1.362.764 1.965.5.602 1.15.912 1.925.912 1.543 0 2.846-.52 3.886-1.55 1.062-1.043 1.593-2.286 1.593-3.724 0-2.07-1.27-3.836-3.795-5.293zM92.58 18.064l.154.003H79.358c.004-2.092.74-3.912 2.214-5.46 1.43-1.518 3.132-2.273 5.092-2.273 1.95 0 3.643.737 5.078 2.229 1.43 1.474 2.171 3.281 2.221 5.42l-.073.081h-1.309zm11.355 5.27l-.053-.159h1.243l.255.003c-.232 2.885-1.391 5.241-3.465 7.055-2.08 1.832-4.558 2.753-7.432 2.753-3.579 0-6.559-1.29-8.93-3.85-2.373-2.563-3.56-5.828-3.56-9.786 0-3.954 1.187-7.216 3.56-9.779 2.371-2.559 5.35-3.843 8.93-3.843 3.571 0 6.478 1.292 8.726 3.85 2.25 2.538 3.371 5.738 3.371 9.604l-.042.168H79.358c.045 2.606.87 4.78 2.453 6.512 1.57 1.723 3.482 2.587 5.724 2.587 1.755 0 3.245-.463 4.477-1.386 1.225-.926 2.04-2.176 2.441-3.732l9.482.003zm-98.88-16.59l.094-.068h7.997c2.183 0 4.03.376 5.536 1.124 1.498.746 2.575 1.647 3.232 2.691.656 1.058.984 2.39.984 4.001 0 1.426-.239 2.527-.712 3.305-.314.518-.746.994-1.294 1.431.954.577 1.675 1.238 2.152 1.994.583.937.874 2.223.874 3.865 0 1.744-.346 3.09-1.044 4.042-.703.954-1.677 1.676-2.923 2.168-1.262.493-3.006.743-5.225.743h-9.675V6.744h.004zm6.97 8.814h1.445c.901 0 1.63-.066 2.176-.205.535-.139.934-.37 1.214-.7.27-.328.41-.788.41-1.398 0-.598-.156-1.053-.468-1.353-.314-.295-.716-.501-1.211-.61-.5-.107-1.267-.163-2.289-.163h-1.28l.003 4.429zm0 8.881h1.738c.947 0 1.687-.082 2.211-.236.426-.127.742-.318.954-.58.208-.264.308-.58.308-.962 0-.49-.156-.904-.476-1.234-.315-.336-.76-.564-1.346-.689-.586-.126-1.524-.188-2.817-.188h-.57l-.002 3.889zm26.302 6.879l-.001-8.951h-6.672v-5.264h6.672V7.888h5.943v9.215h6.67v5.264h-6.67v8.951h-5.942zm36.958 0h-5.98l-.055-.165-7.455-22.322h6.572l4.47 15.552 4.454-15.552h6.573l-7.455 22.322-.124.165zm28.864-5.354c-2.37 2.563-5.35 3.85-8.93 3.85-3.579 0-6.559-1.287-8.93-3.85-2.374-2.563-3.561-5.825-3.561-9.783 0-3.954 1.187-7.216 3.56-9.779 2.372-2.559 5.352-3.843 8.93-3.843 3.58 0 6.56 1.284 8.93 3.843 2.38 2.563 3.565 5.825 3.565 9.78 0 3.957-1.19 7.214-3.564 9.782zm-13.228-3.371c1.14 1.305 2.613 1.962 4.402 1.962 1.789 0 3.262-.657 4.403-1.962 1.149-1.301 1.717-3.034 1.717-5.189 0-2.161-.568-3.898-1.717-5.199-1.14-1.301-2.614-1.96-4.403-1.96-1.794 0-3.267.659-4.402 1.96-1.14 1.301-1.715 3.038-1.715 5.199 0 2.155.57 3.888 1.715 5.19zm-73.516 3.371c-2.37 2.563-5.35 3.85-8.93 3.85-3.58 0-6.56-1.287-8.931-3.85-2.373-2.563-3.56-5.825-3.56-9.783 0-3.954 1.187-7.216 3.56-9.779 2.372-2.559 5.351-3.843 8.93-3.843 3.58 0 6.56 1.284 8.93 3.843 2.381 2.563 3.565 5.825 3.565 9.78 0 3.957-1.19 7.214-3.564 9.782zm-13.228-3.371c1.14 1.305 2.613 1.962 4.402 1.962 1.788 0 3.261-.657 4.402-1.962 1.15-1.301 1.717-3.034 1.717-5.189 0-2.161-.567-3.898-1.717-5.199-1.14-1.301-2.614-1.96-4.402-1.96-1.794 0-3.267.659-4.402 1.96-1.14 1.301-1.715 3.038-1.715 5.199 0 2.155.575 3.888 1.715 5.19z"/>
</svg> 