<svg xmlns="http://www.w3.org/2000/svg" viewBox="0 0 272.96 114.01">
  <path fill="#F05133" d="M163.59,38.806c-5.985,0-10.442,2.939-10.442,10.012 c0,5.33,2.938,9.028,10.12,9.028c6.088,0,10.222-3.587,10.222-9.248C173.49,42.724,169.243,38.806,163.59,38.806z M163.48,53.421 c-1.505,0-2.722-0.593-2.722-2.818c0-2.225,1.217-2.945,2.722-2.945c1.633,0,2.813,0.72,2.813,2.945 C166.293,52.828,165.113,53.421,163.48,53.421z"/>
  <path fill="#F05133" d="M179.351,53.979h-4.9v-9.413c0-1.989-0.593-3.587-3.621-3.587c-1.799,0-3.149,0.477-4.059,1.188 v11.812h-4.893V32.088h4.893v6.777c1.217-0.952,3.133-1.645,5.809-1.645c4.949,0,6.771,2.487,6.771,6.771V53.979z"/>
  <path fill="#F05133" d="M211.929,53.979h-9.021l-2.461-9.415l-2.462,9.415h-9.015l-7.417-21.889h6.765l3.395,12.484 l3.209-12.484h6.539l3.204,12.484l3.395-12.484h6.772L211.929,53.979z"/>
  <path fill="#F05133" d="M229.51,38.806c-5.985,0-10.444,2.939-10.444,10.012c0,5.33,2.943,9.028,10.122,9.028 c6.093,0,10.222-3.587,10.222-9.248C239.41,42.724,235.168,38.806,229.51,38.806z M229.4,53.421c-1.5,0-2.717-0.593-2.717-2.818 c0-2.225,1.217-2.945,2.717-2.945c1.638,0,2.818,0.72,2.818,2.945C232.218,52.828,231.038,53.421,229.4,53.421z"/>
  <path fill="#F05133" d="M241.148,47.387c0-5.53,2.831-8.582,7.954-8.582c0.904,0,1.856,0.106,2.713,0.309v-7.025 c0-0.9-0.427-1.274-1.337-1.274c-0.992,0-2.203,0.19-4.439,0.456c-3.586,0.43-4.545-1.631-4.439-3.688 c3.822-0.242,6.093-0.726,7.768-0.726c4.333,0,6.539,2.203,6.539,5.985v21.137h-4.825v-0.879 c-0.879,0.659-2.037,1.115-3.867,1.115C243.351,53.215,241.148,51.013,241.148,47.387z M251.815,45.648v-2.712 c-0.596-0.126-1.295-0.19-1.991-0.19c-1.748,0-2.691,0.952-2.691,2.371c0,1.422,0.879,2.107,2.152,2.107 C250.182,47.223,251.27,46.476,251.815,45.648z"/>
  <path fill="#F05133" d="M127.974,45.333h-7.954v8.646h-5.063V32.088h5.063v8.691h7.954v-8.691h5.063v21.891h-5.063V45.333z"/>
  <path fill="#F05133" d="M133.617,44.134h9.02c-0.242-2.042-1.453-3.085-3.663-3.085C136.876,41.049,134.495,41.586,133.617,44.134z  M147.756,48.167h-14.094c0.308,2.152,1.724,3.208,4.451,3.208c1.687,0,3.388-0.596,5.014-1.676c1.267,1.267,1.318,2.816,0.129,3.924 c-1.687,1.572-3.821,2.277-7.024,2.277c-5.648,0-9.022-2.833-9.022-9.021c0-5.805,3.269-8.948,8.834-8.948 c5.491,0,8.662,2.936,8.662,8.295C144.706,46.884,144.526,47.533,147.756,48.167z"/>
  <g>
    <path fill="#F05133" d="M111.604,35.12c-4.325,0-7.377,1.507-9.493,3.635l1.841,3.023c1.728-1.511,3.582-2.667,6.433-2.667 c2.969,0,4.123,1.151,4.123,3.427v1.072h-5.103c-4.972,0-7.055,2.186-7.055,5.544c0,3.35,2.155,5.328,6.001,5.328 c2.223,0,4.408-0.777,5.8-2.303l0.365,1.799h3.856V42.504C118.373,37.75,116.219,35.12,111.604,35.12z M113.604,47.295 c0,0.086-0.029,0.172-0.039,0.258c-0.369,1.451-1.737,2.668-3.969,2.668c-1.734,0-2.668-0.863-2.668-2.223 c0-1.547,1.003-2.381,3.067-2.381h3.609V47.295z"/>
    <path fill="#F05133" d="M97.648,14.641c-0.517-1.24-1.269-2.385-2.259-3.375c-1.914-1.914-4.32-2.871-6.728-2.871 c-2.408,0-4.814,0.957-6.728,2.871L74.47,18.73c-1.24-0.525-2.661-0.684-4.289-0.407c-2.055,0.353-3.988,1.486-5.547,3.044 c-1.559,1.558-2.692,3.492-3.045,5.546c-0.28,1.634-0.115,3.055,0.413,4.293L35.8,57.409c-1.915,1.913-2.872,4.318-2.872,6.726 c0,2.409,0.957,4.814,2.872,6.729c1.913,1.913,4.319,2.87,6.727,2.87c2.407,0,4.813-0.957,6.728-2.87L78.107,42.02 c1.24,0.527,2.661,0.689,4.295,0.408c2.054-0.353,3.988-1.486,5.546-3.044c1.559-1.559,2.693-3.492,3.046-5.547 c0.278-1.634,0.114-3.054-0.414-4.293L97.04,23.08c0.99-0.989,1.742-2.135,2.259-3.375l-6.723-0.024 c-0.274,0.377-0.595,0.724-0.977,1.107c-0.515,0.515-1.099,0.942-1.733,1.278l-9.658,6.06 c-0.177,0.111-0.382,0.168-0.591,0.168c-0.211,0-0.418-0.058-0.595-0.168c-0.342-0.215-0.517-0.599-0.468-0.98 c0.081-0.631,0.421-1.535,1.094-2.207c0.515-0.516,1.098-0.942,1.733-1.277l9.658-6.061c0.177-0.11,0.382-0.167,0.591-0.167 c0.19,0,0.38,0.048,0.558,0.142c0.352,0.184,0.559,0.547,0.548,0.93c-0.004,0.058-0.001,0.117-0.004,0.174L97.648,14.641z"/>
    <path fill="#F05133" d="M77.18,52.169c-0.254,0.254-0.648,0.293-0.852,0.088c-0.203-0.203-0.164-0.599,0.09-0.852 c0.254-0.253,0.647-0.292,0.85-0.089C77.473,51.52,77.434,51.916,77.18,52.169"/>
    <path fill="#F05133" d="M81.723,56.712c-0.254,0.254-0.647,0.293-0.85,0.088c-0.204-0.202-0.165-0.598,0.09-0.852 c0.253-0.254,0.648-0.293,0.851-0.088C82.019,56.062,81.978,56.458,81.723,56.712"/>
    <path fill="#F05133" d="M70.092,45.08c-0.253,0.254-0.648,0.293-0.851,0.09c-0.204-0.203-0.164-0.599,0.089-0.852 c0.255-0.254,0.647-0.294,0.851-0.09C70.385,44.431,70.347,44.827,70.092,45.08"/>
    <path fill="#F05133" d="M72.638,42.535c-0.254,0.254-0.648,0.293-0.851,0.09c-0.204-0.203-0.164-0.599,0.088-0.852 c0.255-0.254,0.648-0.293,0.852-0.09C72.931,41.885,72.892,42.282,72.638,42.535"/>
    <path fill="#F05133" d="M72.536,47.623c-0.254,0.254-0.647,0.293-0.85,0.089c-0.204-0.203-0.165-0.599,0.089-0.852 c0.254-0.254,0.647-0.293,0.852-0.089C72.831,46.974,72.791,47.369,72.536,47.623"/>
    <path fill="#F05133" d="M75.083,45.08c-0.254,0.254-0.648,0.293-0.851,0.09c-0.204-0.203-0.164-0.599,0.089-0.852 c0.254-0.254,0.647-0.294,0.851-0.09C75.376,44.431,75.337,44.827,75.083,45.08"/>
    <path fill="#F05133" d="M74.98,50.169c-0.254,0.254-0.647,0.293-0.85,0.088c-0.204-0.203-0.165-0.599,0.089-0.851 c0.254-0.254,0.647-0.293,0.851-0.09C75.273,49.52,75.234,49.916,74.98,50.169"/>
    <path fill="#F05133" d="M77.628,47.623c-0.254,0.254-0.647,0.293-0.85,0.089c-0.204-0.203-0.165-0.599,0.09-0.852 c0.254-0.254,0.647-0.293,0.85-0.089C77.922,46.974,77.883,47.369,77.628,47.623"/>
    <path fill="#F05133" d="M79.177,52.714c-0.254,0.254-0.647,0.293-0.851,0.09c-0.204-0.203-0.164-0.598,0.09-0.852 c0.253-0.254,0.647-0.293,0.851-0.09C79.47,52.064,79.431,52.46,79.177,52.714"/>
    <path fill="#F05133" d="M69.989,49.624c-0.254,0.254-0.647,0.293-0.85,0.089c-0.204-0.203-0.165-0.598,0.09-0.851 c0.253-0.254,0.647-0.293,0.85-0.09C70.283,48.976,70.243,49.372,69.989,49.624"/>
    <path fill="#F05133" d="M79.724,49.624c-0.254,0.254-0.648,0.293-0.851,0.089c-0.204-0.203-0.165-0.598,0.089-0.851 c0.254-0.254,0.648-0.293,0.852-0.09C80.019,48.976,79.979,49.372,79.724,49.624"/>
    <path fill="#F05133" d="M84.267,54.167c-0.254,0.254-0.647,0.293-0.85,0.09c-0.204-0.204-0.165-0.599,0.09-0.853 c0.253-0.254,0.647-0.293,0.85-0.088C84.562,53.519,84.522,53.913,84.267,54.167"/>
    <path fill="#F05133" d="M74.082,40.442c0.245-0.245,0.255-0.644,0.009-0.889c-0.245-0.245-0.644-0.235-0.889,0.009 c-0.244,0.245-0.244,0.644,0.001,0.889C73.438,40.697,73.838,40.687,74.082,40.442"/>
    <path fill="#F05133" d="M36.916,62.038L36.916,62.038C36.916,62.038,36.916,62.038,36.916,62.038L36.916,62.038z"/>
    <path fill="#F05133" d="M41.992,57.33c-0.245,0.244-0.255,0.645-0.01,0.889c0.246,0.245,0.645,0.235,0.889-0.009 c0.245-0.244,0.245-0.644-0.001-0.889C42.636,57.075,42.236,57.086,41.992,57.33"/>
    <path fill="#F05133" d="M39.547,59.307l-0.014,0.015c-0.245,0.246-0.245,0.644,0.001,0.889c0.245,0.244,0.644,0.235,0.889-0.01 l0.014-0.015c0.245-0.244,0.245-0.643-0.001-0.888C40.191,59.054,39.792,59.062,39.547,59.307"/>
    <path fill="#F05133" d="M44.886,54.816l-0.046,0.046c-0.244,0.245-0.244,0.644,0.001,0.889c0.245,0.245,0.644,0.235,0.889-0.01 l0.046-0.045c0.244-0.245,0.243-0.644-0.001-0.889C45.531,54.562,45.13,54.572,44.886,54.816"/>
    <path fill="#F05133" d="M42.441,52.36c-0.245,0.245-0.255,0.645-0.009,0.89c0.245,0.245,0.644,0.235,0.889-0.01 c0.245-0.244,0.245-0.644-0.001-0.889C43.085,52.105,42.686,52.115,42.441,52.36"/>
    <path fill="#F05133" d="M47.332,49.847c-0.245,0.244-0.255,0.645-0.009,0.89c0.245,0.244,0.644,0.234,0.889-0.011 c0.244-0.244,0.244-0.643-0.001-0.888C47.976,49.593,47.577,49.602,47.332,49.847"/>
    <path fill="#F05133" d="M44.886,47.391c-0.245,0.245-0.255,0.645-0.01,0.889c0.245,0.246,0.645,0.234,0.889-0.009 c0.244-0.245,0.244-0.644-0.001-0.889C45.531,47.137,45.131,47.146,44.886,47.391"/>
    <path fill="#F05133" d="M47.781,44.877c-0.244,0.245-0.254,0.645-0.009,0.889s0.644,0.235,0.889-0.009 c0.246-0.245,0.246-0.644-10e-4-0.889C48.424,44.621,48.024,44.632,47.781,44.877"/>
    <path fill="#F05133" d="M45.335,42.422c-0.244,0.245-0.254,0.645-0.009,0.889c0.245,0.244,0.644,0.235,0.889-0.01 c0.245-0.244,0.245-0.644-10e-4-0.889C45.978,42.167,45.579,42.178,45.335,42.422"/>
    <path fill="#F05133" d="M42.89,39.966c-0.245,0.245-0.255,0.645-0.009,0.89c0.244,0.244,0.644,0.234,0.889-0.01 c0.244-0.245,0.244-0.644-0.001-0.889C43.534,39.711,43.134,39.722,42.89,39.966"/>
    <path fill="#F05133" d="M50.227,42.422c-0.245,0.245-0.255,0.645-0.01,0.889c0.245,0.244,0.644,0.235,0.889-0.01 c0.244-0.244,0.244-0.644-0.001-0.889C50.87,42.167,50.471,42.178,50.227,42.422"/>
    <path fill="#F05133" d="M47.781,39.966c-0.244,0.245-0.254,0.645-0.009,0.89c0.244,0.244,0.644,0.234,0.889-0.01 c0.245-0.245,0.245-0.644-0.001-0.889C48.424,39.711,48.024,39.722,47.781,39.966"/>
    <path fill="#F05133" d="M52.122,37.453c-0.245,0.244-0.255,0.644-0.01,0.889c0.244,0.245,0.644,0.235,0.889-0.01 c0.244-0.244,0.244-0.644-0.001-0.889C52.766,37.198,52.366,37.209,52.122,37.453"/>
  </g>
</svg> 