<svg xmlns="http://www.w3.org/2000/svg" viewBox="0 0 24 24">
  <path fill="#4285F4" d="M12.001 4.529a2.53 2.53 0 0 1 1.093 2.129c.001.796-.35 1.561-.957 2.079l-2.06 1.75c-.4.434-.644 1-.686 1.599-.064.802.27 1.587.886 2.078l4.324 3.437a6.725 6.725 0 0 0 2.902-4.923c.266-1.953-.387-3.915-1.771-5.335a7.737 7.737 0 0 0-3.731-2.814M5.188 15.227a2.53 2.53 0 0 1-1.093-2.129c-.001-.795.35-1.561.957-2.079l2.06-1.75c.442-.476.663-1.113.682-1.765.048-.836-.312-1.646-.951-2.144L2.52 2.025a6.722 6.722 0 0 0-2.356 5.089c-.132 1.958.651 3.864 2.136 5.18 1.218 1.083 2.687 1.751 4.244 1.953"/>
  <path fill="#3DDC84" d="M16.273 14.338c.757.612 1.223 1.541 1.223 2.572 0 1.809-1.545 3.354-3.354 3.354a3.342 3.342 0 0 1-2.546-1.181 3.357 3.357 0 0 1-.808-2.173c0-1.026.466-1.955 1.223-2.573-.01-.434.074-.892.289-1.358.39-.84 1.089-1.58 2.025-2.187a3.322 3.322 0 0 1-.295-.398c-.609-.979-.605-2.199-.001-3.182l.012-.017c.012-.018.024-.037.037-.055a3.381 3.381 0 0 1 .483-.536c-.757-.612-1.223-1.541-1.223-2.572 0-1.809 1.545-3.354 3.354-3.354 1.809 0 3.354 1.545 3.354 3.354 0 1.031-.466 1.959-1.222 2.572.756.613 1.222 1.542 1.222 2.572 0 1.81-1.545 3.354-3.354 3.354-.257 0-.507-.032-.748-.089-.936.606-1.635 1.347-2.025 2.187-.215.466-.299.923-.29 1.357m2.572.789c0-.964-.781-1.745-1.745-1.745s-1.745.781-1.745 1.745.781 1.745 1.745 1.745 1.745-.781 1.745-1.745m0-9.891c0-.964-.781-1.745-1.745-1.745s-1.745.781-1.745 1.745.781 1.745 1.745 1.745 1.745-.781 1.745-1.745"/>
</svg> 