<svg xmlns="http://www.w3.org/2000/svg" viewBox="0 0 32 32">
  <path fill="#FF6C37" d="M19.734 7.059c-4.221 0-7.641 3.419-7.641 7.641 0 4.221 3.42 7.639 7.639 7.639 4.221 0 7.639-3.418 7.639-7.639 0-4.222-3.418-7.641-7.639-7.641zm0 13.7c-3.344 0-6.059-2.715-6.059-6.059s2.715-6.061 6.059-6.061c3.344 0 6.059 2.717 6.059 6.061s-2.715 6.059-6.059 6.059z"/>
  <path fill="#FF6C37" d="M29.279 14.701c0 5.253-4.273 9.526-9.525 9.526h-.008c-1.79 0-3.463-.506-4.896-1.368l-.801-.483L8.524 27.9h-.008c-.16.007-.32.011-.472.011-5.253 0-9.525-4.272-9.525-9.525 0-2.044.654-3.969 1.809-5.551l1.287-1.764c1.521-2.092 3.961-3.458 6.73-3.458 1.852 0 3.574.62 4.962 1.621h.008l4.098 3.14h.008c.803.618 1.809.984 2.906.988 2.65 0 4.817-2.159 4.817-4.809s-2.167-4.809-4.817-4.809c-1.432 0-2.715.63-3.6 1.621l-4.883-3.75-.266-.196c1.586-1.347 3.594-2.217 5.793-2.217 4.896 0 8.881 3.979 8.889 8.871v5.628h.02z"/>
  <path fill="#FF6C37" d="M22.36 14.701c0 1.446-1.176 2.614-2.622 2.614s-2.622-1.168-2.622-2.614c0-1.446 1.176-2.622 2.622-2.622 1.446 0 2.622 1.176 2.622 2.622z"/>
</svg> 